<svg id="Logotipos" xmlns="http://www.w3.org/2000/svg" viewBox="0 0 1000 1000"><defs><style>.cls-2{fill:#0b013c}</style></defs><path class="cls-2" d="M454.29 530.49V379.9h29.18v144.07c0 9.64 5.99 15.37 15.63 15.37h8.08v28.14h-12.24c-26.57 0-40.64-13.02-40.64-37Zm63.57-29.44c0-39.6 30.48-69.56 70.86-69.56s71.12 29.96 71.12 69.82c0 3.65-.26 7.56-.78 10.94H549.12c4.43 19.28 20.06 32.04 40.9 32.04 15.37 0 28.66-6.77 35.43-16.93h32.31c-10.68 25.79-36.74 43.25-68.26 43.25-41.16 0-71.65-29.96-71.65-69.56Zm31.52-12.76h79.2c-4.43-18.24-20.06-30.48-39.86-30.48s-34.65 11.98-39.34 30.48m163.87 12.5-48.46-66.18h35.69l32.82 46.37 32.83-46.37h35.43l-48.46 66.18 19.8 24.49c7.03 9.12 15.89 14.07 25.79 14.07h7.55v28.14H795.3c-19.54 0-34.39-8.08-46.89-27.88l-15.11-20.32-33.87 48.2H664l49.24-66.7Zm203.47-66.17v69.04c0 19.54-13.29 32.31-33.09 32.31-18.76 0-31-12.51-31-31.79v-69.56h-29.18v78.16c0 31 20.32 51.33 50.81 51.33 17.71 0 32.3-6.77 42.47-19.54v17.2c0 19.28-13.81 32.04-32.05 32.04v26.29c35.68-.23 61.22-23.86 61.22-59.64V434.62z"/><rect class="cls-2" x="165.18" y="321.01" width="106.66" height="357.99" rx="4.81" ry="4.81" transform="rotate(135 218.51 499.998)"/><path style="fill:#9d90fc" d="m129.65 609.83-75.42-75.42 126.57-72.12 75.42 75.42z"/><path d="m129.65 609.83-.13 51.62c1.78.03 3.58-.62 4.94-1.98l121.76-121.76z" style="fill:#27198e"/><path d="m129.53 661.45.13-51.62-75.42-75.42-.12 51.55c0 1.67.63 3.27 1.73 4.51l69 69c1.3 1.3 2.99 1.95 4.69 1.98Zm248.45-255.12-65.8-65.8a6.81 6.81 0 0 0-9.63 0L180.79 462.29l75.42 75.42 121.76-121.76a6.81 6.81 0 0 0 0-9.63Z" style="fill:#4429cc"/></svg>