<svg viewBox="0 0 59 60" fill="none" xmlns="http://www.w3.org/2000/svg"><rect x="2.305" y="14.789" width="14.635" height="10.093" rx="1.844" stroke="#AC9DFF" stroke-width="1.383" stroke-linecap="round"/><path d="M4.61 20.32h7.835M4.61 22.625h4.156" stroke="#AC9DFF" stroke-width="1.383" stroke-linecap="round"/><rect x="4.323" y="16.303" width="2.776" height="2.776" rx=".922" fill="#AC9DFF"/><rect x="5.992" y="40.141" width="14.635" height="10.093" rx="1.844" stroke="#AC9DFF" stroke-width="1.383" stroke-linecap="round"/><path d="M8.297 45.672h7.836m-7.836 2.305h4.155" stroke="#AC9DFF" stroke-width="1.383" stroke-linecap="round"/><rect x="8.011" y="41.654" width="2.776" height="2.776" rx=".922" fill="#AC9DFF"/><rect x="41.484" y="19.859" width="14.635" height="10.093" rx="1.844" stroke="#AC9DFF" stroke-width="1.383" stroke-linecap="round"/><path d="M43.79 25.39h7.835m-7.836 2.305h4.155" stroke="#AC9DFF" stroke-width="1.383" stroke-linecap="round"/><rect x="43.503" y="21.373" width="2.776" height="2.776" rx=".922" fill="#AC9DFF"/><rect x="21.664" y="25.391" width="14.635" height="10.093" rx="1.844" stroke="#AC9DFF" stroke-width="1.383" stroke-linecap="round"/><path d="M23.935 30.941h7.822m-7.822 1.767h4.148" stroke="#AC9DFF" stroke-width="1.383" stroke-linecap="round"/><rect x="23.683" y="26.904" width="2.776" height="2.776" rx=".922" fill="#AC9DFF"/><path d="M41.827 17.436a18.17 18.17 0 0 0-8.179-4.726 18.28 18.28 0 0 0-14.52 2.224M10.86 27.695a18.3 18.3 0 0 0 .94 8.988m13.321 11.514c4.601.974 9.506.157 13.598-2.451m5.75-5.836a18.2 18.2 0 0 0 2.572-7.375" stroke="#AC9DFF" stroke-width="1.383" stroke-linecap="round"/><path fill-rule="evenodd" clip-rule="evenodd" d="M38.874 20.507c-5.435-5.434-14.245-5.434-19.68 0-5.433 5.434-5.433 14.245 0 19.679 5.037 5.036 12.974 5.405 18.435 1.106l7.664 7.664a1.69 1.69 0 0 0 2.389-2.39l-7.669-7.668c4.264-5.46 3.884-13.368-1.14-18.39M21.477 22.79c4.174-4.174 10.941-4.174 15.115 0s4.174 10.941 0 15.115-10.941 4.174-15.115 0c-4.175-4.174-4.175-10.941 0-15.115" fill="#1800A3"/></svg>