<svg id="Logotipos" xmlns="http://www.w3.org/2000/svg" viewBox="0 0 1000 1000"><defs><style>.cls-2{fill:#efefef}</style></defs><path class="cls-2" d="M452.22 531.87v-157.4h30.5v150.59c0 10.08 6.26 16.07 16.34 16.07h8.44v29.41h-12.8c-27.78 0-42.48-13.61-42.48-38.67m66.44-30.77c0-41.39 31.86-72.71 74.07-72.71s74.34 31.32 74.34 72.98c0 3.81-.27 7.9-.82 11.44H551.33c4.63 20.15 20.97 33.49 42.75 33.49 16.07 0 29.95-7.08 37.03-17.7h33.77c-11.17 26.96-38.4 45.2-71.35 45.2-43.02 0-74.89-31.31-74.89-72.71Zm32.95-13.34h82.78c-4.63-19.06-20.97-31.86-41.66-31.86s-36.22 12.53-41.12 31.86m171.28 13.07-50.65-69.17h37.31l34.31 48.47 34.31-48.47h37.03l-50.65 69.17 20.69 25.6c7.35 9.53 16.61 14.7 26.96 14.7h7.9v29.41h-11.44c-20.42 0-35.94-8.44-49.01-29.14l-15.8-21.24-35.4 50.38h-37.03zm212.67-69.17v72.16c0 20.42-13.89 33.77-34.58 33.77-19.61 0-32.41-13.07-32.41-33.22v-72.71h-30.5v81.69c0 32.41 21.24 53.65 53.1 53.65 18.52 0 33.76-7.08 44.39-20.43v17.98c0 20.15-14.43 33.49-33.49 33.49v27.48c37.29-.24 63.99-24.94 63.99-62.34V431.65h-30.5Z"/><rect class="cls-2" x="150.04" y="312.91" width="111.49" height="374.18" rx="4.81" ry="4.81" transform="rotate(135 205.778 500.002)"/><path style="fill:#9d90fc" d="m112.9 614.8-78.83-78.84 132.29-75.38 78.84 78.84z"/><path d="m112.9 614.8-.13 53.95c1.86.03 3.74-.65 5.16-2.07l127.26-127.26z" style="fill:#27198e"/><path d="m112.77 668.75.13-53.95-78.83-78.83-.13 53.88c0 1.75.66 3.41 1.81 4.72l72.12 72.12a7.05 7.05 0 0 0 4.9 2.07Zm259.69-266.66-68.77-68.77a7.11 7.11 0 0 0-10.06 0L166.37 460.58l78.83 78.83 127.26-127.26a7.11 7.11 0 0 0 0-10.06" style="fill:#4429cc"/></svg>